<?xml version="1.0" encoding="UTF-8"?>
<svg version="1.1" xmlns="http://www.w3.org/2000/svg" width="500" height="500">
<path d="M0 0 C4.0640462 3.60234478 8.04887777 7.27434942 12 11 C12.78375 11.72960937 13.5675 12.45921875 14.375 13.2109375 C45.328069 42.94799308 63.66601605 85.1093334 70 127 C70.103125 127.65742188 70.20625 128.31484375 70.3125 128.9921875 C71.3931626 137.01996678 71.24389712 145.16440299 71.25 153.25 C71.25067474 154.05268311 71.25134949 154.85536621 71.25204468 155.68237305 C71.23515954 168.34338506 70.64287858 180.57899092 68 193 C67.83371094 193.80679199 67.66742188 194.61358398 67.49609375 195.44482422 C61.2240685 225.04529893 48.68103857 253.14088964 30 277 C29.5654248 277.56009766 29.13084961 278.12019531 28.68310547 278.69726562 C-4.68570165 321.1874737 -53.40100619 347.71350902 -106.80004883 354.59204102 C-114.38361778 355.40835786 -122.00662011 355.34794226 -129.625 355.3125 C-130.46071533 355.31034485 -131.29643066 355.3081897 -132.1574707 355.30596924 C-178.26909111 355.11543445 -223.85551743 339.34638832 -259 309 C-259.76828125 308.34128906 -260.5365625 307.68257813 -261.328125 307.00390625 C-263.93190708 304.7150978 -266.47273801 302.37311693 -269 300 C-269.52609863 299.50790039 -270.05219727 299.01580078 -270.59423828 298.50878906 C-303.73419306 267.25406995 -322.85512976 225.63267147 -330 181 C-330.1119873 180.30277832 -330.22397461 179.60555664 -330.33935547 178.88720703 C-331.41540032 170.90606151 -331.2439322 162.78911965 -331.25 154.75 C-331.25067474 153.94731689 -331.25134949 153.14463379 -331.25204468 152.31762695 C-331.23515954 139.65661494 -330.64287858 127.42100908 -328 115 C-327.83371094 114.19320801 -327.66742188 113.38641602 -327.49609375 112.55517578 C-321.8621207 85.96595296 -311.21052935 59.93377344 -295 38 C-294.23300781 36.95070313 -293.46601563 35.90140625 -292.67578125 34.8203125 C-287.32859192 27.62703179 -281.55408509 20.91135655 -275.36474609 14.43212891 C-274.05051533 13.05300947 -272.75339339 11.65764787 -271.45703125 10.26171875 C-244.64506166 -17.76713297 -206.757763 -36.53955593 -169 -44 C-168.19046875 -44.16226074 -167.3809375 -44.32452148 -166.546875 -44.49169922 C-108.06030948 -55.63035527 -45.04142316 -38.80380256 0 0 Z " fill="#010101" transform="translate(379,92)"/>
<path d="M0 0 C4.0640462 3.60234478 8.04887777 7.27434942 12 11 C12.78375 11.72960937 13.5675 12.45921875 14.375 13.2109375 C45.328069 42.94799308 63.66601605 85.1093334 70 127 C70.103125 127.65742188 70.20625 128.31484375 70.3125 128.9921875 C71.3931626 137.01996678 71.24389712 145.16440299 71.25 153.25 C71.25067474 154.05268311 71.25134949 154.85536621 71.25204468 155.68237305 C71.23515954 168.34338506 70.64287858 180.57899092 68 193 C67.83371094 193.80679199 67.66742188 194.61358398 67.49609375 195.44482422 C61.2240685 225.04529893 48.68103857 253.14088964 30 277 C29.5654248 277.56009766 29.13084961 278.12019531 28.68310547 278.69726562 C-4.68570165 321.1874737 -53.40100619 347.71350902 -106.80004883 354.59204102 C-114.38361778 355.40835786 -122.00662011 355.34794226 -129.625 355.3125 C-130.46071533 355.31034485 -131.29643066 355.3081897 -132.1574707 355.30596924 C-178.26909111 355.11543445 -223.85551743 339.34638832 -259 309 C-259.76828125 308.34128906 -260.5365625 307.68257813 -261.328125 307.00390625 C-263.93190708 304.7150978 -266.47273801 302.37311693 -269 300 C-269.52609863 299.50790039 -270.05219727 299.01580078 -270.59423828 298.50878906 C-303.73419306 267.25406995 -322.85512976 225.63267147 -330 181 C-330.1119873 180.30277832 -330.22397461 179.60555664 -330.33935547 178.88720703 C-331.41540032 170.90606151 -331.2439322 162.78911965 -331.25 154.75 C-331.25067474 153.94731689 -331.25134949 153.14463379 -331.25204468 152.31762695 C-331.23515954 139.65661494 -330.64287858 127.42100908 -328 115 C-327.83371094 114.19320801 -327.66742188 113.38641602 -327.49609375 112.55517578 C-321.8621207 85.96595296 -311.21052935 59.93377344 -295 38 C-294.23300781 36.95070313 -293.46601563 35.90140625 -292.67578125 34.8203125 C-287.32859192 27.62703179 -281.55408509 20.91135655 -275.36474609 14.43212891 C-274.05051533 13.05300947 -272.75339339 11.65764787 -271.45703125 10.26171875 C-244.64506166 -17.76713297 -206.757763 -36.53955593 -169 -44 C-168.19046875 -44.16226074 -167.3809375 -44.32452148 -166.546875 -44.49169922 C-108.06030948 -55.63035527 -45.04142316 -38.80380256 0 0 Z M-266 18 C-266.76054687 18.69480469 -267.52109375 19.38960937 -268.3046875 20.10546875 C-294.59071639 44.99535325 -311.32195798 81.07752532 -319 116 C-319.16516113 116.74701172 -319.33032227 117.49402344 -319.50048828 118.26367188 C-324.20042732 140.67951348 -323.42150025 165.29800171 -319.39697266 187.75585938 C-319.0419234 189.76300128 -318.74183576 191.7796854 -318.44921875 193.796875 C-315.47154379 212.02753805 -307.87645876 229.8887406 -299 246 C-298.67676758 246.60344238 -298.35353516 247.20688477 -298.02050781 247.82861328 C-293.39365772 256.46309821 -288.08508337 264.3224598 -282 272 C-281.34902344 272.8559375 -280.69804687 273.711875 -280.02734375 274.59375 C-265.20646001 293.55534307 -246.79154458 309.24792304 -225.81640625 320.98242188 C-224.02350884 321.98682999 -222.24656029 323.01606038 -220.46875 324.046875 C-203.79713835 333.51938162 -185.75676528 339.33182078 -167 343 C-166.19224121 343.16371094 -165.38448242 343.32742188 -164.55224609 343.49609375 C-143.35567757 347.64371419 -119.23511182 348.00878594 -98 344 C-97.28730957 343.87641113 -96.57461914 343.75282227 -95.84033203 343.62548828 C-58.37612339 337.07857616 -24.46601455 319.08223061 3 293 C3.5038623 292.52336914 4.00772461 292.04673828 4.52685547 291.55566406 C12.5275266 283.93712171 19.60858261 276.01089301 26 267 C26.41878418 266.41492676 26.83756836 265.82985352 27.26904297 265.22705078 C36.84882617 251.72974927 43.66297291 237.23503562 50 222 C50.51046875 220.83855469 51.0209375 219.67710937 51.546875 218.48046875 C55.3411154 209.39265102 57.34152446 199.82391667 59.1875 190.1875 C59.35435303 189.31657715 59.52120605 188.4456543 59.69311523 187.54833984 C68.81398688 138.22529204 56.93955016 86.19001653 28.62451172 44.99902344 C21.78333417 35.3226171 14.22901574 26.51196184 6 18 C5.32710938 17.27554688 4.65421875 16.55109375 3.9609375 15.8046875 C-21.00655578 -10.4377416 -57.81378665 -28.27651974 -93 -35 C-94.04929687 -35.21140625 -95.09859375 -35.4228125 -96.1796875 -35.640625 C-159.2550591 -47.35223246 -220.16870566 -25.14635475 -266 18 Z " fill="#030303" transform="translate(379,92)"/>
<path d="M0 0 C0.77102051 0.01546875 1.54204102 0.0309375 2.33642578 0.046875 C50.95838556 1.18008892 97.92028133 26.47097302 131.12890625 60.87890625 C152.65338955 83.86119404 168.25143717 112.56420364 176 143 C176.34804688 144.2478125 176.69609375 145.495625 177.0546875 146.78125 C186.49855673 181.18636054 184.24916203 220.56888092 172 254 C171.59136719 255.16660156 171.18273437 256.33320313 170.76171875 257.53515625 C161.66097155 283.07983778 147.63294713 305.34193927 129 325 C128.54463867 325.48791016 128.08927734 325.97582031 127.62011719 326.47851562 C101.26536713 354.56459963 65.46131609 372.98494023 28 381 C26.3603125 381.35191406 26.3603125 381.35191406 24.6875 381.7109375 C-23.6456802 391.1853393 -76.01877356 379.65796768 -116.7734375 352.53125 C-153.1600923 327.54174977 -178.11333661 293.26443685 -193 252 C-193.58587891 250.40671875 -193.58587891 250.40671875 -194.18359375 248.78125 C-200.45177095 230.24500615 -202.23323007 210.06987919 -202.25 190.625 C-202.25101212 189.56486191 -202.25101212 189.56486191 -202.25204468 188.48330688 C-202.23435279 176.77078246 -201.53413019 165.46168542 -199 154 C-198.82839355 153.21947266 -198.65678711 152.43894531 -198.47998047 151.63476562 C-190.28761495 115.64399808 -172.58653476 83.51978222 -147 57 C-146.27554688 56.22398438 -145.55109375 55.44796875 -144.8046875 54.6484375 C-107.19456071 15.37291765 -53.09613857 -1.41377636 0 0 Z M-62 16 C-62.70769531 16.20995605 -63.41539062 16.41991211 -64.14453125 16.63623047 C-75.38959958 20.02599822 -85.68221486 24.41075143 -96 30 C-96.59232422 30.31163086 -97.18464844 30.62326172 -97.79492188 30.94433594 C-111.85950734 38.35293865 -124.54778513 47.99937089 -136 59 C-136.72751465 59.6808667 -136.72751465 59.6808667 -137.46972656 60.37548828 C-162.35092887 83.71613077 -179.94286235 114.67511554 -188.125 147.75 C-188.37636719 148.719375 -188.62773437 149.68875 -188.88671875 150.6875 C-192.1830409 163.87278862 -193.37006003 176.93084956 -193.3125 190.5 C-193.31067719 191.18910461 -193.30885437 191.87820923 -193.30697632 192.5881958 C-193.22294971 211.61324242 -191.07987091 229.9216978 -185 248 C-184.72559082 248.81645996 -184.45118164 249.63291992 -184.16845703 250.47412109 C-173.5105723 281.46977148 -155.56335333 311.00452456 -130 332 C-128.95572073 332.89191721 -127.91145069 333.78384522 -126.8671875 334.67578125 C-106.23026905 352.01835542 -82.63077775 363.20438731 -57 371 C-55.93523437 371.32871094 -54.87046875 371.65742188 -53.7734375 371.99609375 C-25.36449543 379.89656323 5.49525394 378.59088612 34 372 C35.33804688 371.69642578 35.33804688 371.69642578 36.703125 371.38671875 C72.01377217 362.55905696 106.82674547 342.34375757 130 314 C130.90234375 312.93359375 131.8046875 311.8671875 132.70703125 310.80078125 C165.70553004 271.26616571 178.13048678 222.79680561 174.80517578 172.02539062 C172.92342403 151.26070262 166.33148287 130.56431479 157 112 C156.6685498 111.33291016 156.33709961 110.66582031 155.99560547 109.97851562 C147.60529637 93.23888574 136.79572174 78.64744934 124 65 C123.5349707 64.50097168 123.06994141 64.00194336 122.59082031 63.48779297 C94.62660919 33.71736887 51.04970223 10.88967534 9.78582764 8.89285278 C7.39977847 8.83634933 5.01559358 8.80918345 2.62890625 8.796875 C1.30801247 8.78832489 1.30801247 8.78832489 -0.03956604 8.77960205 C-1.89770324 8.77020296 -3.75585673 8.76363847 -5.61401367 8.75976562 C-8.39858744 8.75013459 -11.18239806 8.71909321 -13.96679688 8.6875 C-30.6595534 8.58895821 -46.00757782 11.20937057 -62 16 Z " fill="#F6F6F6" transform="translate(259,54)"/>
<path d="M0 0 C3.64413886 1.41303343 4.60530964 2.19182449 6.3125 5.6875 C6.539375 6.450625 6.76625 7.21375 7 8 C5.35 8.33 3.7 8.66 2 9 C2 9.99 2 10.98 2 12 C-4.625 15 -4.625 15 -8 15 C-8 15.66 -8 16.32 -8 17 C-8.66 17 -9.32 17 -10 17 C-10.0270043 18.45823212 -10.04639787 19.91660675 -10.0625 21.375 C-10.07410156 22.18710938 -10.08570313 22.99921875 -10.09765625 23.8359375 C-10.14466334 26.04937142 -10.14466334 26.04937142 -9 28 C-3.73101448 29.75632851 1.20852052 29.54384198 6.5 27.9375 C9.34406195 26.15239074 9.34406195 26.15239074 9.8125 22.5625 C9.9053125 20.7990625 9.9053125 20.7990625 10 19 C10.4375 16.875 10.4375 16.875 11 15 C11.37125 13.6696875 11.37125 13.6696875 11.75 12.3125 C13 10 13 10 15.625 9.1875 C16.40875 9.125625 17.1925 9.06375 18 9 C21.77651305 13.01402959 24.95442174 16.42358264 26 22 C25.80411315 27.48483188 24.49746853 30.78510203 21 35 C17.87413201 37.64925049 14.67375945 40.16312027 11 42 C11.97839844 42.72703125 11.97839844 42.72703125 12.9765625 43.46875 C18.58778219 47.77234032 23.24968181 51.96908292 27 58 C27.37898438 58.6084375 27.75796875 59.216875 28.1484375 59.84375 C29.28757885 62.7281813 29.19215689 65.16078321 29.125 68.25 C29.10695313 69.32765625 29.08890625 70.4053125 29.0703125 71.515625 C29.04710937 72.33546875 29.02390625 73.1553125 29 74 C28.34 73.34 27.68 72.68 27 72 C27 71.01 27 70.02 27 69 C26.34 69 25.68 69 25 69 C24.505 70.98 24.505 70.98 24 73 C20.29614963 71.76538321 19.94398982 70.27292415 18.16015625 66.9765625 C14.98183638 61.56164717 11.11667273 56.89060794 5 55 C-3.11335384 54.45867087 -3.11335384 54.45867087 -11 56 C-11.556875 56.721875 -12.11375 57.44375 -12.6875 58.1875 C-15.25644201 61.31188893 -18.00395141 63.35528309 -21.29296875 65.66796875 C-23.13242437 66.90649246 -23.13242437 66.90649246 -24 69 C-24.55037577 74.88478707 -24.64175154 80.10639637 -21 85 C-15.01738299 89.58667304 -10.01965608 91.18033842 -2.5 91.1875 C-1.82324219 91.19974609 -1.14648438 91.21199219 -0.44921875 91.22460938 C3.26357044 91.23559396 4.82983076 91.11344616 8 89 C9.50660857 88.49687567 11.03012929 88.04314289 12.5625 87.625 C17.00849588 86.34823442 21.22419118 84.77031754 25.48046875 82.96484375 C35.94143156 78.95886264 48.70982682 77.83049551 59.5703125 81.0625 C66.21591965 84.46860506 71.83409133 89.60984168 75.16015625 96.3515625 C77.17715076 102.71213124 77.18215547 110.43944244 74.25 116.5 C73.53241111 117.68687712 72.78504655 118.8566221 72 120 C71.443125 120.86625 70.88625 121.7325 70.3125 122.625 C64.41536656 128.68151542 57.53966973 132.73766845 49.01171875 133.23046875 C47.57024211 133.22897859 46.12872965 133.214225 44.6875 133.1875 C43.92840332 133.175979 43.16930664 133.16445801 42.38720703 133.15258789 C40.90204643 133.12436442 39.41698568 133.09004645 37.93212891 133.04882812 C36.42784843 133.01081244 34.92270195 133.0065192 33.41796875 133.015625 C26.37681513 132.74636482 20.19218517 129.06519882 14.00683594 125.98925781 C10.69573194 124.35706884 7.34728783 122.80623213 4 121.25 C2.824375 120.69828125 1.64875 120.1465625 0.4375 119.578125 C-3.01794906 117.99175975 -6.50264385 116.4912792 -10 115 C-11.50122836 114.31518641 -13.00141514 113.62807922 -14.5 112.9375 C-26.39182607 107.656723 -40.30380508 105.71691109 -52.80078125 110.0234375 C-56.3125196 111.58282398 -58.39731784 113.13037608 -61 116 C-61.96298724 119.17562802 -61.96298724 119.17562802 -62 122 C-57.2311188 124.45284668 -52.73491097 124.34374889 -47.5 124.3125 C-46.58597412 124.31048584 -45.67194824 124.30847168 -44.73022461 124.30639648 C-34.68401854 124.16313661 -24.88524125 122.69182282 -15 121 C-13.81277344 120.80277344 -12.62554687 120.60554688 -11.40234375 120.40234375 C-10.60957031 120.26957031 -9.81679687 120.13679688 -9 120 C-9 121.32 -9 122.64 -9 124 C-10.485 124.495 -10.485 124.495 -12 125 C-9.69 125 -7.38 125 -5 125 C-13.89458179 135.37701209 -31.61009821 137.71859326 -44.47680664 138.90478516 C-54.35868989 139.55465756 -64.43801848 138.98517153 -72.76953125 133.015625 C-77.03926756 129.15715926 -78.21701749 125.30944263 -78.5625 119.6875 C-78.34137401 113.41092385 -76.29153359 109.51436322 -72 105 C-60.77763949 95.11116073 -49.26028945 93.30849691 -35 91 C-35.27714844 90.39671875 -35.55429688 89.7934375 -35.83984375 89.171875 C-36.20207031 88.37265625 -36.56429687 87.5734375 -36.9375 86.75 C-37.29714844 85.96109375 -37.65679687 85.1721875 -38.02734375 84.359375 C-40.99374019 77.1637788 -41.09259731 69.23528309 -38.5625 61.875 C-34.68549149 53.27160302 -27.60963154 47.47406185 -19 44 C-18.34 44 -17.68 44 -17 44 C-17.95421808 42.85073734 -18.91352045 41.70569459 -19.875 40.5625 C-20.40867188 39.92441406 -20.94234375 39.28632813 -21.4921875 38.62890625 C-22.9222757 36.89194996 -22.9222757 36.89194996 -25 36 C-27.75763994 29.87731044 -29.09683851 23.49077537 -27 17 C-20.78795116 5.71120779 -12.87787279 -1.02353035 0 0 Z " fill="#FBFBFB" transform="translate(251,139)"/>
<path d="M0 0 C1.61645508 1.13989258 1.61645508 1.13989258 3 3 C3.43237305 6.00268555 3.43237305 6.00268555 3.51171875 9.63671875 C3.54716797 10.93544922 3.58261719 12.23417969 3.61914062 13.57226562 C3.6422405 14.94400517 3.6650229 16.3157501 3.6875 17.6875 C3.72067542 19.07099607 3.75516531 20.45446129 3.79101562 21.83789062 C3.87363241 25.22517883 3.94274058 28.61220357 4 32 C4.60980713 31.95576904 5.21961426 31.91153809 5.84790039 31.8659668 C12.44213582 31.58391345 12.44213582 31.58391345 15.12109375 33.58203125 C20.75187233 43.12260861 21.19198484 52.51164375 21.65625 63.421875 C22.0148701 67.15478427 22.92631435 70.4154117 24 74 C24.42080904 76.91630448 24.29991408 79.00085924 24 82 C21.95605162 84.42245734 20.6345575 84.86983436 17.5625 85.5 C13.77328157 84.76064031 12.46164208 82.92997335 10 80 C8.91161829 77.45691155 8.28345382 74.88348155 7.6875 72.1875 C7.51927734 71.49462891 7.35105469 70.80175781 7.17773438 70.08789062 C6.76927043 68.39568286 6.38238258 66.69829134 6 65 C5.73445313 65.55429687 5.46890625 66.10859375 5.1953125 66.6796875 C4.84210938 67.40414062 4.48890625 68.12859375 4.125 68.875 C3.77695312 69.59429687 3.42890625 70.31359375 3.0703125 71.0546875 C2 73 2 73 0 75 C-2.875 75.5 -2.875 75.5 -6 75 C-9.94324218 70.42970604 -10.55458386 66.59194861 -10.390625 60.7578125 C-10.38496521 59.98944061 -10.37930542 59.22106873 -10.37347412 58.42941284 C-10.35122173 55.99395379 -10.30105041 53.56000843 -10.25 51.125 C-10.22992042 49.4661672 -10.2116722 47.80731116 -10.1953125 46.1484375 C-10.15139406 42.09838201 -10.08244763 38.04944694 -10 34 C-14.3723929 37.36935608 -16.51842655 39.33263294 -17.25390625 44.93359375 C-17.65503077 52.19265359 -15.12017384 58.49352171 -12.06640625 64.984375 C-9.20752737 71.38607506 -9.24597971 78.10490333 -10 85 C-11.6875 88.5625 -11.6875 88.5625 -14 91 C-14.845625 91.9075 -15.69125 92.815 -16.5625 93.75 C-19.38885074 96.35893914 -21.15095229 97.87618054 -25 98.4375 C-28 98 -28 98 -29.875 95.875 C-31.20819267 92.46795206 -31.66487718 90.61988687 -31 87 C-29.65234375 85.56640625 -29.65234375 85.56640625 -28 84.125 C-25.23881925 81.60591329 -25.02639048 81.1609819 -24.375 77.1875 C-24.80237461 71.64231439 -27.06052794 65.93947206 -31 62 C-31.680625 63.2684375 -31.680625 63.2684375 -32.375 64.5625 C-35.50969747 69.2869369 -40.29049196 72.01605571 -45 75 C-45.969375 75.639375 -46.93875 76.27875 -47.9375 76.9375 C-52.64388136 78.57032619 -57.08277761 78.78295059 -62 78 C-66.23677706 75.92432091 -69.15265825 72.27805458 -71 68 C-71.51805072 64.98819533 -71.77198307 62.05542692 -72 59 C-74.31 60.98 -76.62 62.96 -79 65 C-77.55522823 67.88954355 -76.17628269 70.25207959 -74.375 72.875 C-72.17399199 76.38224422 -71.11833185 78.78758549 -72 83 C-73.5625 84.9375 -73.5625 84.9375 -76 86 C-80.39096739 86.35127739 -82.09986149 85.71682763 -85.5703125 82.953125 C-87.32986889 81.34233577 -89.06302318 79.70212632 -90.765625 78.03125 C-92.91253088 75.8046209 -92.91253088 75.8046209 -96 75 C-95.896875 76.051875 -95.79375 77.10375 -95.6875 78.1875 C-96 82 -96 82 -98.0625 85 C-101 87 -101 87 -104.6875 86.875 C-108 86 -108 86 -110 85 C-110.96484375 83.07421875 -110.96484375 83.07421875 -111.9375 80.6875 C-113.3162776 77.44453247 -114.66596291 74.68414265 -117 72 C-115.125 68.125 -115.125 68.125 -114 67 C-113.38990293 57.6725544 -114.1466465 49.24787978 -116.31640625 40.1328125 C-117.46089077 34.88780343 -118.11643213 30.26550848 -115.6640625 25.2890625 C-111.47850835 21.69267726 -107.27775392 22.29615647 -101.9375 22.4375 C-100.37793579 22.46348267 -100.37793579 22.46348267 -98.78686523 22.48999023 C-88.13643172 22.81886745 -80.43199497 24.77293103 -72.59375 32.2578125 C-70.17402543 34.90290357 -68 37.30804089 -68 41 C-67.5153125 40.60167969 -67.030625 40.20335937 -66.53125 39.79296875 C-59.67374119 34.37289929 -53.50770823 31.28883444 -44.609375 31.49609375 C-39.78331563 32.42807228 -35.94638366 35.17875551 -32 38 C-31.59910156 37.28714844 -31.19820313 36.57429688 -30.78515625 35.83984375 C-26.94300997 29.36656782 -22.91751314 23.42949467 -16 20 C-12.72265625 19.82421875 -12.72265625 19.82421875 -10 20 C-10.05800781 18.73542969 -10.11601562 17.47085937 -10.17578125 16.16796875 C-10.22267728 14.50784935 -10.26817761 12.84769011 -10.3125 11.1875 C-10.35439453 10.35412109 -10.39628906 9.52074219 -10.43945312 8.66210938 C-10.4860347 6.34234676 -10.47242616 4.27269088 -10 2 C-6.57860628 -1.02421701 -4.29629722 -1.58284634 0 0 Z " fill="#FAFAFA" transform="translate(296,276)"/>
<path d="M0 0 C2.42975857 1.87318825 3.34409963 3.25741501 5 6 C5.07242816 10.12840537 4.42556369 12.31605836 2.25 15.8125 C-2.87489092 20.79503283 -8.97595093 20.59309024 -15.796875 20.51953125 C-25.32367246 19.72563146 -34.30361702 14.36019277 -42 9 C-39.27244234 6.27244234 -36.05561669 5.35670396 -32.5 4.0625 C-31.77820557 3.79743652 -31.05641113 3.53237305 -30.31274414 3.25927734 C-10.07260397 -4.10365347 -10.07260397 -4.10365347 0 0 Z " fill="#050505" transform="translate(305,235)"/>
<path d="M0 0 C1.79133978 -0.05391993 3.58313899 -0.09275571 5.375 -0.125 C6.37273437 -0.14820312 7.37046875 -0.17140625 8.3984375 -0.1953125 C11 0 11 0 13 2 C13.44921875 5.22265625 13.44921875 5.22265625 13.6875 9.0625 C13.77386719 10.33222656 13.86023438 11.60195312 13.94921875 12.91015625 C13.96597656 13.92980469 13.98273438 14.94945313 14 16 C13.67 16.33 13.34 16.66 13 17 C12.75653135 19.22277862 12.61672484 21.44424927 12.4765625 23.67578125 C11.88302742 26.57048103 11.16904917 27.98021873 9 30 C6.30078125 30.171875 6.30078125 30.171875 3.3125 29.75 C2.31863281 29.62109375 1.32476562 29.4921875 0.30078125 29.359375 C-0.45847656 29.24078125 -1.21773437 29.1221875 -2 29 C-3.7682026 24.9324617 -3.86011503 23.30057513 -3 19 C-3.20632494 17.4135285 -3.4383624 15.83031398 -3.6875 14.25 C-4.37866119 8.63642254 -2.72290445 4.83812207 0 0 Z " fill="#F9F9F9" transform="translate(248,97)"/>
<path d="M0 0 C0 0.99 0 1.98 0 3 C0.5775 3.268125 1.155 3.53625 1.75 3.8125 C6.20748226 6.16506008 8.67571498 8.46764421 11 13 C11 13.66 11 14.32 11 15 C11.66 15 12.32 15 13 15 C13.4375 18.1875 13.4375 18.1875 13 22 C10.05157155 25.45265245 7.04502989 26.90499728 2.5625 27.3125 C1.716875 27.209375 0.87125 27.10625 0 27 C-0.185625 26.29875 -0.37125 25.5975 -0.5625 24.875 C-2.02059342 21.95881316 -2.93599571 21.11376385 -5.4375 19.1875 C-9.30155633 16.07210458 -10.97318028 12.83094229 -12 8 C-12 6.68 -12 5.36 -12 4 C-7.99873708 0.57034607 -5.24242317 -0.4992784 0 0 Z " fill="#F8F8F8" transform="translate(212,114)"/>
<path d="M0 0 C2.625 -0.4375 2.625 -0.4375 6 0 C9.44721068 2.74845175 11.81095904 5.51917913 12.375 9.9375 C12.25125 10.618125 12.1275 11.29875 12 12 C11.01 12.33 10.02 12.66 9 13 C8.30062468 14.31647119 7.63270867 15.65022151 7 17 C6.34 17.33 5.68 17.66 5 18 C4.67 18.99 4.34 19.98 4 21 C2.68 21 1.36 21 0 21 C0 21.66 0 22.32 0 23 C-2.625 23.4375 -2.625 23.4375 -6 23 C-8.46261752 20.98664379 -10.4175486 18.76087265 -12 16 C-12 12 -12 12 -10.125 9.9375 C-9.42375 9.298125 -8.7225 8.65875 -8 8 C-7.34 7.01 -6.68 6.02 -6 5 C-5.01 5 -4.02 5 -3 5 C-2.67 4.01 -2.34 3.02 -2 2 C-1.34 2 -0.68 2 0 2 C0 1.34 0 0.68 0 0 Z " fill="#F8F8F8" transform="translate(291,114)"/>
<path d="M0 0 C12.77272727 0 12.77272727 0 18.9375 4.375 C20.47716008 6.72977424 20.32628273 8.22659678 20 11 C18.34765625 13.1328125 18.34765625 13.1328125 16.0625 15.125 C14.96615234 16.11886719 14.96615234 16.11886719 13.84765625 17.1328125 C11 19 11 19 2 22 C1.34 14.74 0.68 7.48 0 0 Z " fill="#080808" transform="translate(195,314)"/>
<path d="M0 0 C0.02505615 1.03406982 0.0501123 2.06813965 0.07592773 3.13354492 C0.1703343 6.98213387 0.27047291 10.83055629 0.37231445 14.67895508 C0.41553784 16.34232681 0.45722146 18.00573932 0.49731445 19.66918945 C0.55532332 22.06474068 0.61892829 24.46008908 0.68359375 26.85546875 C0.70030624 27.5952446 0.71701874 28.33502045 0.73423767 29.09721375 C0.8410211 32.84676515 1.19839097 36.3397604 2 40 C1.87890625 42.67578125 1.87890625 42.67578125 1.5625 45.3125 C1.46066406 46.19550781 1.35882813 47.07851563 1.25390625 47.98828125 C1.17011719 48.65214844 1.08632813 49.31601562 1 50 C0.67 50 0.34 50 0 50 C-0.00257813 49.23558594 -0.00515625 48.47117187 -0.0078125 47.68359375 C-0.31109742 39.28260157 -2.29389237 32.79510492 -5.625 25.21484375 C-8.40106613 18.72421187 -9.29253269 12.32365549 -6.6875 5.625 C-3.07142857 0 -3.07142857 0 0 0 Z " fill="#232323" transform="translate(286,310)"/>
<path d="M0 0 C6.0546875 -0.1953125 6.0546875 -0.1953125 8 0 C10 2 10 2 10.4375 4.75 C9.87446767 8.9325259 8.08209007 11.27909236 5 14 C1.70069605 15.97958237 -0.15073315 17 -4 17 C-4.57374185 10.11509775 -3.4753869 5.97332123 0 0 Z " fill="#0A0A0A" transform="translate(243,323)"/>
</svg>
